name C:\Users\u0101727\Documents\MyRepositories\upper-imu-dc\Results\main_tracking\Case_44\kinematics.mot
datacolumns 10
datarows 42
range 3.50000000 3.91000000
endheader 
time	clav_prot	clav_elev	scapula_abduction	scapula_elevation	scapula_upward_rot	scapula_winging	plane_elv	shoulder_elv	axial_rot	
          3.50000000	        -44.53668943	          8.99583653	          0.81932602	         -1.64862081	         84.37185336	        -11.82224721	         37.49789424	         87.72590277	         -7.34512654	
          3.51000000	        -44.54031986	          8.99745068	          0.80679382	         -1.64882694	         84.36405772	        -11.82643391	         37.52138841	         87.69969880	         -7.30340777	
          3.52000000	        -44.54300058	          8.99866445	          0.79527271	         -1.64933948	         84.35533735	        -11.83006367	         37.54489013	         87.67314918	         -7.26245992	
          3.53000000	        -44.54472396	          8.99945874	          0.78478403	         -1.65016998	         84.34569736	        -11.83312533	         37.56829463	         87.64625616	         -7.22234054	
          3.54000000	        -44.54547607	          8.99981908	          0.77535441	         -1.65132695	         84.33513724	        -11.83560588	         37.59152683	         87.61902416	         -7.18310444	
          3.55000000	        -44.54523674	          8.99973681	          0.76701528	         -1.65281520	         84.32365066	        -11.83749079	         37.61454277	         87.59145933	         -7.14480548	
          3.56000000	        -44.54397948	          8.99920990	          0.75980238	         -1.65463525	         84.31122498	        -11.83876426	         37.63733025	         87.56356896	         -7.10749986	
          3.57000000	        -44.54167129	          8.99824363	          0.75375545	         -1.65678297	         84.29784056	        -11.83940944	         37.65990876	         87.53536064	         -7.07125065	
          3.58000000	        -44.53827223	          8.99685100	          0.74891803	         -1.65924938	         84.28346975	        -11.83940839	         37.68232883	         87.50684110	         -7.03613291	
          3.59000000	        -44.53373476	          8.99505283	          0.74533777	         -1.66202070	         84.26807577	        -11.83874191	         37.70467082	         87.47801484	         -7.00223851	
          3.60000000	        -44.52800293	          8.99287743	          0.74306679	         -1.66507858	         84.25161141	        -11.83738922	         37.72704353	         87.44888262	         -6.96968018	
          3.61000000	        -44.52101170	          8.99035994	          0.74216214	         -1.66840073	         84.23401773	        -11.83532749	         37.74958286	         87.41944001	         -6.93859409	
          3.62000000	        -44.51268630	          8.98754131	          0.74268606	         -1.67196167	         84.21522280	        -11.83253154	         37.77245076	         87.38967590	         -6.90914066	
          3.63000000	        -44.50294200	          8.98446718	          0.74470581	         -1.67573361	         84.19514058	        -11.82897352	         37.79583462	         87.35957134	         -6.88150355	
          3.64000000	        -44.49168411	          8.98118659	          0.74829347	         -1.67968737	         84.17367015	        -11.82462282	         37.81994695	         87.32909848	         -6.85588686	
          3.65000000	        -44.47880819	          8.97775076	          0.75352538	         -1.68379334	         84.15069518	        -11.81944597	         37.84502531	         87.29821985	         -6.83251073	
          3.66000000	        -44.46420040	          8.97421185	          0.76048180	         -1.68802230	         84.12608390	        -11.81340666	         37.87133223	         87.26688776	         -6.81160582	
          3.67000000	        -44.44773786	          8.97062169	          0.76924694	         -1.69234627	         84.09968937	        -11.80646554	         37.89915487	         87.23504414	         -6.79340684	
          3.68000000	        -44.42928880	          8.96703073	          0.77990936	         -1.69673909	         84.07135019	        -11.79858009	         37.92880438	         87.20262072	         -6.77814562	
          3.69000000	        -44.40871273	          8.96348700	          0.79256267	         -1.70117708	         84.04089144	        -11.78970423	         37.96061474	         87.16953950	         -6.76604407	
          3.70000000	        -44.38586045	          8.96003508	          0.80730660	         -1.70563947	         84.00812571	        -11.77978804	         37.99494110	         87.13571352	         -6.75730728	
          3.71000000	        -44.36057420	          8.95671522	          0.82424778	         -1.71010893	         83.97285426	        -11.76877742	         38.03215763	         87.10104798	         -6.75211713	
          3.72000000	        -44.33268777	          8.95356253	          0.84350056	         -1.71457191	         83.93486808	        -11.75661385	         38.07265487	         87.06544150	         -6.75062682	
          3.73000000	        -44.30202685	          8.95060646	          0.86518743	         -1.71901886	         83.89394905	        -11.74323443	         38.11683665	         87.02878763	         -6.75295638	
          3.74000000	        -44.26840966	          8.94787071	          0.88943909	         -1.72344411	         83.84987147	        -11.72857198	         38.16511667	         86.99097621	         -6.75918940	
          3.75000000	        -44.23164791	          8.94537334	          0.91639418	         -1.72784561	         83.80240380	        -11.71255560	         38.21791496	         86.95189456	         -6.76937112	
          3.76000000	        -44.19154798	          8.94312709	          0.94619885	         -1.73222453	         83.75131093	        -11.69511115	         38.27565420	         86.91142844	         -6.78350804	
          3.77000000	        -44.14791233	          8.94113958	          0.97900619	         -1.73658483	         83.69635664	        -11.67616196	         38.33875611	         86.86946277	         -6.80156924	
          3.78000000	        -44.10054119	          8.93941343	          1.01497541	         -1.74093300	         83.63730628	        -11.65562957	         38.40763802	         86.82588205	         -6.82348964	
          3.79000000	        -44.04923465	          8.93794620	          1.05427026	         -1.74527789	         83.57392939	        -11.63343479	         38.48271025	         86.78057051	         -6.84917506	
          3.80000000	        -43.99379546	          8.93673024	          1.09705621	         -1.74963072	         83.50600218	        -11.60949911	         38.56437431	         86.73341197	         -6.87850901	
          3.81000000	        -43.93403247	          8.93575289	          1.14349609	         -1.75400495	         83.43330959	        -11.58374679	         38.65302226	         86.68428946	         -6.91136095	
          3.82000000	        -43.86976463	          8.93499694	          1.19374457	         -1.75841604	         83.35564703	        -11.55610728	         38.74903686	         86.63308480	         -6.94759527	
          3.83000000	        -43.80082498	          8.93444190	          1.24794201	         -1.76288077	         83.27282185	        -11.52651799	         38.85279208	         86.57967812	         -6.98708085	
          3.84000000	        -43.72706443	          8.93406578	          1.30620853	         -1.76741616	         83.18465440	        -11.49492694	         38.96465347	         86.52394739	         -7.02970041	
          3.85000000	        -43.64835481	          8.93384745	          1.36863885	         -1.77203802	         83.09097900	        -11.46129514	         39.08497799	         86.46576801	         -7.07535942	
          3.86000000	        -43.56459108	          8.93376909	          1.43529833	         -1.77675941	         82.99164446	        -11.42559847	         39.21411306	         86.40501246	         -7.12399381	
          3.87000000	        -43.47569257	          8.93381868	          1.50622026	         -1.78158900	         82.88651418	        -11.38782895	         39.35239483	         86.34155004	         -7.17557596	
          3.88000000	        -43.38160324	          8.93399220	          1.58140458	         -1.78652968	         82.77546578	        -11.34799534	         39.50014582	         86.27524680	         -7.23011852	
          3.89000000	        -43.28229102	          8.93429548	          1.66081777	         -1.79157732	         82.65839026	        -11.30612315	         39.65767200	         86.20596554	         -7.28767587	
          3.90000000	        -43.17774661	          8.93474538	          1.74439381	         -1.79672001	         82.53519092	        -11.26225407	         39.82525952	         86.13356592	         -7.34834348	
          3.91000000	        -43.06798176	          8.93537037	          1.83203595	         -1.80193764	         82.40578214	        -11.21644502	         40.00317122	         86.05790440	         -7.41225550	
